<svg viewBox="0 0 800 500" xmlns="http://www.w3.org/2000/svg">

  <rect width="800" height="600" fill="#f8f9fa" />

  <!-- Title -->
  <text x="400" y="30" font-family="Arial" font-size="22" font-weight="bold" text-anchor="middle">Motion Analysis to Wobble Bass Mapping</text>
  
  <!-- Visual Flow -->
  <rect x="50" y="70" width="140" height="80" rx="5" fill="#e3f2fd" stroke="#1565c0" stroke-width="2" />
  <text x="120" y="100" font-family="Arial" font-size="14" text-anchor="middle">Video Frames</text>
  <text x="120" y="120" font-family="Arial" font-size="12" text-anchor="middle">Sequential images</text>
  
  <path d="M 190 110 L 240 110" stroke="#666" stroke-width="2" fill="none" marker-end="url(#arrow)" />
  
  <rect x="240" y="70" width="140" height="80" rx="5" fill="#e3f2fd" stroke="#1565c0" stroke-width="2" />
  <text x="310" y="100" font-family="Arial" font-size="14" text-anchor="middle">Optical Flow</text>
  <text x="310" y="120" font-family="Arial" font-size="12" text-anchor="middle">Dense movement vectors</text>
  
  <path d="M 380 110 L 430 110" stroke="#666" stroke-width="2" fill="none" marker-end="url(#arrow)" />
  
  <rect x="430" y="70" width="140" height="80" rx="5" fill="#e3f2fd" stroke="#1565c0" stroke-width="2" />
  <text x="500" y="100" font-family="Arial" font-size="14" text-anchor="middle">Motion Metrics</text>
  <text x="500" y="120" font-family="Arial" font-size="12" text-anchor="middle">Intensity, direction, areas</text>
  
  <path d="M 570 110 L 620 110" stroke="#666" stroke-width="2" fill="none" marker-end="url(#arrow)" />
  
  <rect x="620" y="70" width="140" height="80" rx="5" fill="#fff3e0" stroke="#e65100" stroke-width="2" />
  <text x="690" y="100" font-family="Arial" font-size="14" text-anchor="middle">Wobble Bass</text>
  <text x="690" y="120" font-family="Arial" font-size="12" text-anchor="middle">Characteristic "wubwub"</text>
  
  <!-- Technical Implementation -->
  <rect x="100" y="200" width="600" height="270" rx="5" fill="#f5f5f5" stroke="#9e9e9e" stroke-width="1" />
  <text x="400" y="225" font-family="Arial" font-size="16" font-weight="bold" text-anchor="middle">Technical Implementation</text>
  
  <!-- Left Column: OpenCV -->
  <rect x="120" y="245" width="175" height="200" rx="5" fill="#e8eaf6" stroke="#3949ab" stroke-width="1" />
  <text x="207.5" y="265" font-family="Arial" font-size="14" font-weight="bold" text-anchor="middle">OpenCV Processing</text>
  
  <rect x="130" y="280" width="155" height="40" rx="3" fill="#c5cae9" stroke="#3949ab" stroke-width="1" />
  <text x="207.5" y="305" font-family="Arial" font-size="12" text-anchor="middle">cv2.calcOpticalFlowFarneback()</text>
  
  <rect x="130" y="330" width="155" height="40" rx="3" fill="#c5cae9" stroke="#3949ab" stroke-width="1" />
  <text x="207.5" y="355" font-family="Arial" font-size="12" text-anchor="middle">Calculate motion magnitude</text>
  
  <rect x="130" y="380" width="155" height="40" rx="3" fill="#c5cae9" stroke="#3949ab" stroke-width="1" />
  <text x="207.5" y="405" font-family="Arial" font-size="12" text-anchor="middle">Identify high-motion regions</text>
  
  <!-- Middle Column: Mapping -->
  <rect x="315" y="245" width="175" height="200" rx="5" fill="#e0f2f1" stroke="#00796b" stroke-width="1" />
  <text x="402.5" y="265" font-family="Arial" font-size="14" font-weight="bold" text-anchor="middle">Parameter Mapping</text>
  
  <rect x="325" y="280" width="155" height="40" rx="3" fill="#b2dfdb" stroke="#00796b" stroke-width="1" />
  <text x="402.5" y="305" font-family="Arial" font-size="12" text-anchor="middle">Motion magnitude → LFO rate</text>
  
  <rect x="325" y="330" width="155" height="40" rx="3" fill="#b2dfdb" stroke="#00796b" stroke-width="1" />
  <text x="402.5" y="355" font-family="Arial" font-size="12" text-anchor="middle">Direction → Filter resonance</text>
  
  <rect x="325" y="380" width="155" height="40" rx="3" fill="#b2dfdb" stroke="#00796b" stroke-width="1" />
  <text x="402.5" y="405" font-family="Arial" font-size="12" text-anchor="middle">Region size → Bass intensity</text>
  
  <!-- Right Column: Synthesis -->
  <rect x="510" y="245" width="175" height="200" rx="5" fill="#fff8e1" stroke="#ff8f00" stroke-width="1" />
  <text x="597.5" y="265" font-family="Arial" font-size="14" font-weight="bold" text-anchor="middle">Sound Synthesis</text>
  
  <rect x="520" y="280" width="155" height="40" rx="3" fill="#ffecb3" stroke="#ff8f00" stroke-width="1" />
  <text x="597.5" y="305" font-family="Arial" font-size="12" text-anchor="middle">Oscillator (Sawtooth/Square)</text>
  
  <rect x="520" y="330" width="155" height="40" rx="3" fill="#ffecb3" stroke="#ff8f00" stroke-width="1" />
  <text x="597.5" y="355" font-family="Arial" font-size="12" text-anchor="middle">LFO → Low-pass Filter Cutoff</text>
  
  <rect x="520" y="380" width="155" height="40" rx="3" fill="#ffecb3" stroke="#ff8f00" stroke-width="1" />
  <text x="597.5" y="405" font-family="Arial" font-size="12" text-anchor="middle">Modulation creates "wub"</text>
  
  <!-- Connection Arrows -->
  <path d="M 207.5 420 L 207.5 440 L 402.5 440 L 402.5 420" stroke="#666" stroke-width="1.5" fill="none" />
  <path d="M 402.5 420 L 402.5 440 L 597.5 440 L 597.5 420" stroke="#666" stroke-width="1.5" fill="none" />
  
  <!-- Arrow marker definition -->
  <defs>
    <marker id="arrow" markerWidth="10" markerHeight="10" refX="9" refY="3" orient="auto" markerUnits="strokeWidth">
      <path d="M0,0 L0,6 L9,3 z" fill="#666" />
    </marker>
  </defs>
</svg>