<svg viewBox="0 0 800 500" xmlns="http://www.w3.org/2000/svg">
  <!-- Background -->
  <rect width="800" height="500" fill="#f8f9fa"/>
  
  <!-- Title -->
  <text x="400" y="30" font-family="Arial" font-size="20" font-weight="bold" text-anchor="middle">Project Sonique v0.0.1: Foundation Architecture</text>
  
  <!-- Main Components -->
  <!-- Video Input -->
  <rect x="50" y="80" width="140" height="70" rx="10" fill="#e3f2fd" stroke="#1565c0" stroke-width="2"/>
  <text x="120" y="125" font-family="Arial" font-size="14" font-weight="bold" text-anchor="middle">Video Input</text>
  
  <!-- Basic Preprocessing -->
  <rect x="240" y="80" width="140" height="70" rx="10" fill="#e8f5e9" stroke="#2e7d32" stroke-width="2"/>
  <text x="310" y="125" font-family="Arial" font-size="14" font-weight="bold" text-anchor="middle">Basic Video</text>
  <text x="310" y="145" font-family="Arial" font-size="14" font-weight="bold" text-anchor="middle">Preprocessing</text>
  
  <!-- Simple Motion Analysis -->
  <rect x="430" y="80" width="140" height="70" rx="10" fill="#e1f5fe" stroke="#0277bd" stroke-width="2"/>
  <text x="500" y="125" font-family="Arial" font-size="14" font-weight="bold" text-anchor="middle">Simple Motion</text>
  <text x="500" y="145" font-family="Arial" font-size="14" font-weight="bold" text-anchor="middle">Analysis</text>
  
  <!-- Basic Audio Generation -->
  <rect x="620" y="80" width="140" height="70" rx="10" fill="#fff3e0" stroke="#e65100" stroke-width="2"/>
  <text x="690" y="125" font-family="Arial" font-size="14" font-weight="bold" text-anchor="middle">Basic Audio</text>
  <text x="690" y="145" font-family="Arial" font-size="14" font-weight="bold" text-anchor="middle">Generation</text>
  
  <!-- Flow Arrows -->
  <path d="M 190 115 L 240 115" stroke="#666" stroke-width="2" fill="none" marker-end="url(#arrow)"/>
  <path d="M 380 115 L 430 115" stroke="#666" stroke-width="2" fill="none" marker-end="url(#arrow)"/>
  <path d="M 570 115 L 620 115" stroke="#666" stroke-width="2" fill="none" marker-end="url(#arrow)"/>
  
  <!-- Component Details -->
  <!-- Video Preprocessing Details -->
  <rect x="240" y="200" width="140" height="200" rx="5" fill="#f5f5f5" stroke="#9e9e9e" stroke-width="1"/>
  <text x="310" y="220" font-family="Arial" font-size="12" font-weight="bold" text-anchor="middle">Preprocessing Components</text>
  
  <rect x="255" y="235" width="110" height="30" rx="3" fill="#e8f5e9" stroke="#2e7d32" stroke-width="1"/>
  <text x="310" y="255" font-family="Arial" font-size="11" text-anchor="middle">Frame Extraction</text>
  
  <rect x="255" y="275" width="110" height="30" rx="3" fill="#e8f5e9" stroke="#2e7d32" stroke-width="1"/>
  <text x="310" y="295" font-family="Arial" font-size="11" text-anchor="middle">Resize and Normalize</text>
  
  <rect x="255" y="315" width="110" height="30" rx="3" fill="#e8f5e9" stroke="#2e7d32" stroke-width="1"/>
  <text x="310" y="335" font-family="Arial" font-size="11" text-anchor="middle">Basic Enhancement</text>
  
  <rect x="255" y="355" width="110" height="30" rx="3" fill="#e8f5e9" stroke="#2e7d32" stroke-width="1"/>
  <text x="310" y="375" font-family="Arial" font-size="11" text-anchor="middle">Metadata Extraction</text>
  
  <!-- Motion Analysis Details -->
  <rect x="430" y="200" width="140" height="200" rx="5" fill="#f5f5f5" stroke="#9e9e9e" stroke-width="1"/>
  <text x="500" y="220" font-family="Arial" font-size="12" font-weight="bold" text-anchor="middle">Motion Analysis Components</text>
  
  <rect x="445" y="235" width="110" height="30" rx="3" fill="#e1f5fe" stroke="#0277bd" stroke-width="1"/>
  <text x="500" y="255" font-family="Arial" font-size="11" text-anchor="middle">Optical Flow</text>
  
  <rect x="445" y="275" width="110" height="30" rx="3" fill="#e1f5fe" stroke="#0277bd" stroke-width="1"/>
  <text x="500" y="295" font-family="Arial" font-size="11" text-anchor="middle">Motion Intensity</text>
  
  <rect x="445" y="315" width="110" height="30" rx="3" fill="#e1f5fe" stroke="#0277bd" stroke-width="1"/>
  <text x="500" y="335" font-family="Arial" font-size="11" text-anchor="middle">Basic Direction</text>
  
  <rect x="445" y="355" width="110" height="30" rx="3" fill="#e1f5fe" stroke="#0277bd" stroke-width="1"/>
  <text x="500" y="375" font-family="Arial" font-size="11" text-anchor="middle">Motion Statistics</text>
  
  <!-- Audio Generation Details -->
  <rect x="620" y="200" width="140" height="200" rx="5" fill="#f5f5f5" stroke="#9e9e9e" stroke-width="1"/>
  <text x="690" y="220" font-family="Arial" font-size="12" font-weight="bold" text-anchor="middle">Audio Generation Components</text>
  
  <rect x="635" y="235" width="110" height="30" rx="3" fill="#fff3e0" stroke="#e65100" stroke-width="1"/>
  <text x="690" y="255" font-family="Arial" font-size="11" text-anchor="middle">Basic Oscillators</text>
  
  <rect x="635" y="275" width="110" height="30" rx="3" fill="#fff3e0" stroke="#e65100" stroke-width="1"/>
  <text x="690" y="295" font-family="Arial" font-size="11" text-anchor="middle">Simple Filters</text>
  
  <rect x="635" y="315" width="110" height="30" rx="3" fill="#fff3e0" stroke="#e65100" stroke-width="1"/>
  <text x="690" y="335" font-family="Arial" font-size="11" text-anchor="middle">Basic LFO</text>
  
  <rect x="635" y="355" width="110" height="30" rx="3" fill="#fff3e0" stroke="#e65100" stroke-width="1"/>
  <text x="690" y="375" font-family="Arial" font-size="11" text-anchor="middle">Volume Envelope</text>
  
  <!-- Connecting Lines -->
  <path d="M 310 150 L 310 200" stroke="#2e7d32" stroke-width="1" stroke-dasharray="4,2" fill="none"/>
  <path d="M 500 150 L 500 200" stroke="#0277bd" stroke-width="1" stroke-dasharray="4,2" fill="none"/>
  <path d="M 690 150 L 690 200" stroke="#e65100" stroke-width="1" stroke-dasharray="4,2" fill="none"/>
  
  <!-- Key Features Box -->
  <rect x="40" y="420" width="720" height="60" rx="5" fill="#f5f5f5" stroke="#9e9e9e" stroke-width="1"/>
  <text x="400" y="440" font-family="Arial" font-size="12" font-weight="bold" text-anchor="middle">v0.0.1 Key Features: Foundation Layer</text>
  <text x="400" y="460" font-family="Arial" font-size="11" text-anchor="middle">Basic motion detection • Simple parameter mapping • Single frequency band analysis • Basic wobble bass effect</text>
  <text x="400" y="475" font-family="Arial" font-size="11" text-anchor="middle">Linear pipeline with minimal artist intervention • Limited audio parameter range • Proof of concept functionality</text>
  
  <!-- Arrow marker definition -->
  <defs>
    <marker id="arrow" markerWidth="10" markerHeight="10" refX="9" refY="3" orient="auto" markerUnits="strokeWidth">
      <path d="M0,0 L0,6 L9,3 z" fill="#666"/>
    </marker>
  </defs>
</svg>