<svg viewBox="0 0 800 600" xmlns="http://www.w3.org/2000/svg">
  <rect width="800" height="600" fill="#f8f9fa" />

  <!-- Title -->
  <text x="400" y="30" font-family="Arial" font-size="22" font-weight="bold" text-anchor="middle">Edge Detection to Rhythm Pattern Mapping</text>
  
  <!-- Visual Flow -->
  <rect x="50" y="70" width="140" height="80" rx="5" fill="#e3f2fd" stroke="#1565c0" stroke-width="2" />
  <text x="120" y="100" font-family="Arial" font-size="14" text-anchor="middle">Video Frame</text>
  <text x="120" y="120" font-family="Arial" font-size="12" text-anchor="middle">Raw image data</text>
  
  <path d="M 190 110 L 240 110" stroke="#666" stroke-width="2" fill="none" marker-end="url(#arrow)" />
  
  <rect x="240" y="70" width="140" height="80" rx="5" fill="#e3f2fd" stroke="#1565c0" stroke-width="2" />
  <text x="310" y="100" font-family="Arial" font-size="14" text-anchor="middle">Edge Detection</text>
  <text x="310" y="120" font-family="Arial" font-size="12" text-anchor="middle">Canny, Sobel algorithms</text>
  
  <path d="M 380 110 L 430 110" stroke="#666" stroke-width="2" fill="none" marker-end="url(#arrow)" />
  
  <rect x="430" y="70" width="140" height="80" rx="5" fill="#e3f2fd" stroke="#1565c0" stroke-width="2" />
  <text x="500" y="100" font-family="Arial" font-size="14" text-anchor="middle">Edge Analysis</text>
  <text x="500" y="120" font-family="Arial" font-size="12" text-anchor="middle">Density, distribution</text>
  
  <path d="M 570 110 L 620 110" stroke="#666" stroke-width="2" fill="none" marker-end="url(#arrow)" />
  
  <rect x="620" y="70" width="140" height="80" rx="5" fill="#fff3e0" stroke="#e65100" stroke-width="2" />
  <text x="690" y="100" font-family="Arial" font-size="14" text-anchor="middle">Rhythm Patterns</text>
  <text x="690" y="120" font-family="Arial" font-size="12" text-anchor="middle">Beats, percussion, hi-hats</text>
  
  <!-- Edge Image Sample -->
  <rect x="70" y="180" width="660" height="100" rx="5" fill="#f5f5f5" stroke="#9e9e9e" stroke-width="1" />
  <text x="400" y="200" font-family="Arial" font-size="14" font-weight="bold" text-anchor="middle">Edge Detection Visualization</text>
  
  <!-- Original vs Edge Images -->
  <rect x="90" y="220" width="180" height="40" rx="3" fill="#bbdefb" stroke="#1565c0" stroke-width="1" />
  <text x="180" y="245" font-family="Arial" font-size="12" text-anchor="middle">Original Frame</text>
  
  <path d="M 270 240 L 290 240" stroke="#666" stroke-width="1.5" fill="none" marker-end="url(#arrow)" />
  
  <rect x="290" y="220" width="180" height="40" rx="3" fill="#bbdefb" stroke="#1565c0" stroke-width="1" />
  <text x="380" y="245" font-family="Arial" font-size="12" text-anchor="middle">Edge Detection Output</text>
  
  <path d="M 470 240 L 490 240" stroke="#666" stroke-width="1.5" fill="none" marker-end="url(#arrow)" />
  
  <rect x="490" y="220" width="180" height="40" rx="3" fill="#bbdefb" stroke="#1565c0" stroke-width="1" />
  <text x="580" y="245" font-family="Arial" font-size="12" text-anchor="middle">Analyzed Edge Pattern</text>
  
  <!-- Technical Implementation -->
  <rect x="70" y="300" width="660" height="280" rx="5" fill="#f5f5f5" stroke="#9e9e9e" stroke-width="1" />
  <text x="400" y="325" font-family="Arial" font-size="16" font-weight="bold" text-anchor="middle">Technical Implementation</text>
  
  <!-- Left Column: Edge Detection -->
  <rect x="90" y="345" width="200" height="210" rx="5" fill="#e8eaf6" stroke="#3949ab" stroke-width="1" />
  <text x="190" y="365" font-family="Arial" font-size="14" font-weight="bold" text-anchor="middle">OpenCV Edge Detection</text>
  
  <rect x="100" y="380" width="180" height="40" rx="3" fill="#c5cae9" stroke="#3949ab" stroke-width="1" />
  <text x="190" y="405" font-family="Arial" font-size="12" text-anchor="middle">cv2.cvtColor(gray) conversion</text>
  
  <rect x="100" y="430" width="180" height="40" rx="3" fill="#c5cae9" stroke="#3949ab" stroke-width="1" />
  <text x="190" y="455" font-family="Arial" font-size="12" text-anchor="middle">cv2.Canny(frame, 100, 200)</text>
  
  <rect x="100" y="480" width="180" height="40" rx="3" fill="#c5cae9" stroke="#3949ab" stroke-width="1" />
  <text x="190" y="505" font-family="Arial" font-size="12" text-anchor="middle">np.sum(edges) / total_pixels</text>
  
  <!-- Middle Column: Analysis & Mapping -->
  <rect x="300" y="345" width="200" height="210" rx="5" fill="#e0f2f1" stroke="#00796b" stroke-width="1" />
  <text x="400" y="365" font-family="Arial" font-size="14" font-weight="bold" text-anchor="middle">Rhythm Mapping</text>
  
  <rect x="310" y="380" width="180" height="40" rx="3" fill="#b2dfdb" stroke="#00796b" stroke-width="1" />
  <text x="400" y="405" font-family="Arial" font-size="12" text-anchor="middle">Edge density → Beat density</text>
  
  <rect x="310" y="430" width="180" height="40" rx="3" fill="#b2dfdb" stroke="#00796b" stroke-width="1" />
  <text x="400" y="455" font-family="Arial" font-size="12" text-anchor="middle">Horizontal edges → Kick drum</text>
  
  <rect x="310" y="480" width="180" height="40" rx="3" fill="#b2dfdb" stroke="#00796b" stroke-width="1" />
  <text x="400" y="505" font-family="Arial" font-size="12" text-anchor="middle">Vertical edges → Hi-hats</text>
  
  <!-- Right Column: Sound Generation -->
  <rect x="510" y="345" width="200" height="210" rx="5" fill="#fff8e1" stroke="#ff8f00" stroke-width="1" />
  <text x="610" y="365" font-family="Arial" font-size="14" font-weight="bold" text-anchor="middle">House Rhythm Generation</text>
  
  <rect x="520" y="380" width="180" height="40" rx="3" fill="#ffecb3" stroke="#ff8f00" stroke-width="1" />
  <text x="610" y="405" font-family="Arial" font-size="12" text-anchor="middle">Four-on-the-floor base</text>
  
  <rect x="520" y="430" width="180" height="40" rx="3" fill="#ffecb3" stroke="#ff8f00" stroke-width="1" />
  <text x="610" y="455" font-family="Arial" font-size="12" text-anchor="middle">Edge-triggered percussion</text>
  
  <rect x="520" y="480" width="180" height="40" rx="3" fill="#ffecb3" stroke="#ff8f00" stroke-width="1" />
  <text x="610" y="505" font-family="Arial" font-size="12" text-anchor="middle">Time-aligned to 120-128 BPM</text>
  
  <!-- Timing Grid at bottom -->
  <line x1="90" y1="550" x2="730" y2="550" stroke="#666" stroke-width="1.5" />
  <line x1="150" y1="545" x2="150" y2="555" stroke="#666" stroke-width="1.5" />
  <line x1="270" y1="545" x2="270" y2="555" stroke="#666" stroke-width="1.5" />
  <line x1="390" y1="545" x2="390" y2="555" stroke="#666" stroke-width="1.5" />
  <line x1="510" y1="545" x2="510" y2="555" stroke="#666" stroke-width="1.5" />
  <line x1="630" y1="545" x2="630" y2="555" stroke="#666" stroke-width="1.5" />
  
  <circle cx="150" cy="550" r="8" fill="#e65100" />
  <circle cx="270" cy="550" r="8" fill="#e65100" />
  <circle cx="390" cy="550" r="8" fill="#e65100" />
  <circle cx="510" cy="550" r="8" fill="#e65100" />
  
  <text x="400" y="580" font-family="Arial" font-size="12" text-anchor="middle">4/4 House Beat Pattern with Edge-Triggered Percussion</text>
  
  <!-- Arrow marker definition -->
  <defs>
    <marker id="arrow" markerWidth="10" markerHeight="10" refX="9" refY="3" orient="auto" markerUnits="strokeWidth">
      <path d="M0,0 L0,6 L9,3 z" fill="#666" />
    </marker>
  </defs>
</svg>